<svg width="434.2" height="95" viewBox="0 0 434.2 95" xmlns="http://www.w3.org/2000/svg"><g id="svgGroup" stroke-linecap="round" fill-rule="evenodd" font-size="9pt" stroke="#00bd7e" stroke-width="0.25mm" fill="#00bd7e" style="stroke:#00bd7e;stroke-width:0.25mm;fill:#00bd7e"><path d="M 167.5 70 L 176 70 L 176 41.5 A 28.704 28.704 0 0 1 176.029 40.263 Q 176.09 38.877 176.273 37.017 A 93.994 93.994 0 0 1 176.3 36.75 Q 176.6 33.8 177.85 30.95 A 12.577 12.577 0 0 1 181.38 26.309 A 14.742 14.742 0 0 1 181.7 26.05 Q 183.78 24.41 187.205 24.082 A 18.85 18.85 0 0 1 189 24 A 12.389 12.389 0 0 1 191.019 24.154 Q 192.993 24.48 194.25 25.5 Q 196.1 27 197 29.2 Q 197.9 31.4 198.05 33.8 Q 198.171 35.731 198.194 37.274 A 47.551 47.551 0 0 1 198.2 38 L 198.2 70 L 206.7 70 L 206.7 41.5 A 29.866 29.866 0 0 1 206.756 39.73 Q 206.815 38.747 206.935 37.633 A 59.613 59.613 0 0 1 207.1 36.25 Q 207.5 33.2 208.8 30.5 Q 210.1 27.8 212.55 25.9 Q 214.656 24.267 218.053 24.038 A 17.012 17.012 0 0 1 219.2 24 A 17.439 17.439 0 0 1 221.19 24.106 Q 222.178 24.22 223.004 24.456 A 7.761 7.761 0 0 1 224.2 24.9 Q 226.1 25.8 227.15 27.6 A 9.981 9.981 0 0 1 228.047 29.669 Q 228.349 30.64 228.517 31.766 A 16.886 16.886 0 0 1 228.55 32 Q 228.9 34.6 228.9 38 L 228.9 70 L 237.4 70 L 237.4 35.1 Q 237.4 32.8 236.9 29.95 Q 236.4 27.1 234.75 24.65 A 11.439 11.439 0 0 0 232.182 21.961 A 15.482 15.482 0 0 0 229.95 20.55 A 12.831 12.831 0 0 0 227.052 19.482 Q 225.648 19.136 223.989 18.996 A 28.384 28.384 0 0 0 221.6 18.9 A 18.42 18.42 0 0 0 220.246 18.953 Q 219.256 19.027 218.1 19.2 A 14.146 14.146 0 0 0 215.787 19.759 A 18.561 18.561 0 0 0 213.9 20.5 A 14.851 14.851 0 0 0 211.143 22.151 A 18.663 18.663 0 0 0 209.65 23.4 A 14.293 14.293 0 0 0 207.627 25.757 Q 206.803 26.947 206.1 28.4 L 205.4 28.4 A 14.733 14.733 0 0 0 204.469 26.406 A 18.486 18.486 0 0 0 203.7 25.15 Q 202.6 23.5 200.9 22.1 A 13.465 13.465 0 0 0 198.389 20.478 A 16.633 16.633 0 0 0 196.85 19.8 A 12.741 12.741 0 0 0 194.438 19.154 Q 192.953 18.9 191.2 18.9 A 15.997 15.997 0 0 0 189.991 18.949 Q 188.913 19.031 187.6 19.25 A 15.378 15.378 0 0 0 184.22 20.234 A 17.815 17.815 0 0 0 183.4 20.6 Q 181.3 21.6 179.45 23.4 A 12.169 12.169 0 0 0 177.575 25.773 A 16.511 16.511 0 0 0 176.4 28.1 L 176 28.1 L 176 20 L 167.5 20 L 167.5 70 Z M 425.9 31.4 L 431.6 31.4 Q 431.6 28.7 430.2 26.4 A 12.406 12.406 0 0 0 427.232 23.092 A 14.798 14.798 0 0 0 426.35 22.45 A 18.961 18.961 0 0 0 422.79 20.586 A 23.506 23.506 0 0 0 420.65 19.85 A 24.008 24.008 0 0 0 415.128 18.936 A 27.837 27.837 0 0 0 413.7 18.9 Q 410.2 18.9 407.15 19.8 A 16.204 16.204 0 0 0 403.571 21.322 A 14.106 14.106 0 0 0 401.85 22.5 Q 399.6 24.3 398.3 26.95 A 12.533 12.533 0 0 0 397.183 30.595 A 16.535 16.535 0 0 0 397 33.1 Q 397 37.9 399.2 40.7 Q 401.4 43.5 404.7 45.2 A 36.055 36.055 0 0 0 410.867 47.668 A 40.563 40.563 0 0 0 411.85 47.95 Q 415.7 49 419 50.25 A 21.373 21.373 0 0 1 421.852 51.565 A 15.874 15.874 0 0 1 424.5 53.4 A 6.234 6.234 0 0 1 426.635 57.504 A 8.906 8.906 0 0 1 426.7 58.6 A 9.604 9.604 0 0 1 426.468 60.664 A 11.495 11.495 0 0 1 426.25 61.5 A 6.532 6.532 0 0 1 425.057 63.732 A 7.942 7.942 0 0 1 424.6 64.25 A 7.627 7.627 0 0 1 423.226 65.367 Q 422.383 65.912 421.3 66.35 A 10.434 10.434 0 0 1 419.412 66.9 Q 418.467 67.088 417.371 67.158 A 21.46 21.46 0 0 1 416 67.2 A 21.333 21.333 0 0 1 413.066 67.009 Q 410.926 66.712 409.25 65.95 A 17.895 17.895 0 0 1 406.892 64.668 A 13.177 13.177 0 0 1 404.75 62.95 A 13.86 13.86 0 0 1 403.421 61.423 Q 402.768 60.545 402.361 59.655 A 8.224 8.224 0 0 1 402.25 59.4 Q 401.517 57.641 401.501 56.455 A 3.907 3.907 0 0 1 401.5 56.4 L 395 56.4 A 12.22 12.22 0 0 0 396.26 61.767 A 14.068 14.068 0 0 0 396.3 61.85 A 13.013 13.013 0 0 0 398.726 65.234 A 16.383 16.383 0 0 0 400.25 66.6 Q 402.9 68.7 406.75 69.95 Q 410.359 71.122 415.068 71.195 A 40.671 40.671 0 0 0 415.7 71.2 Q 424.9 71.2 429.55 67.15 A 13.247 13.247 0 0 0 434.172 57.516 A 17.924 17.924 0 0 0 434.2 56.5 A 16.639 16.639 0 0 0 433.91 53.297 Q 433.538 51.401 432.688 49.907 A 9.324 9.324 0 0 0 431.95 48.8 Q 429.7 45.9 426.3 44.15 A 38.176 38.176 0 0 0 419.929 41.585 A 42.766 42.766 0 0 0 418.95 41.3 A 122.65 122.65 0 0 1 414.227 39.886 A 101.043 101.043 0 0 1 411.6 39 Q 408.499 37.905 406.355 36.395 A 14.993 14.993 0 0 1 405.95 36.1 Q 403.7 34.4 403.7 31.3 A 7.633 7.633 0 0 1 403.876 29.703 A 9.867 9.867 0 0 1 404.2 28.55 A 6.982 6.982 0 0 1 405.28 26.569 A 8.622 8.622 0 0 1 405.9 25.85 A 8.126 8.126 0 0 1 407.388 24.643 Q 408.107 24.182 408.983 23.801 A 13.712 13.712 0 0 1 409.1 23.75 Q 410.748 23.05 413.075 22.926 A 19.384 19.384 0 0 1 414.1 22.9 A 17.818 17.818 0 0 1 416.562 23.061 Q 417.865 23.243 418.976 23.631 A 10.505 10.505 0 0 1 419.3 23.75 Q 421.5 24.6 423 25.85 Q 424.5 27.1 425.2 28.6 Q 425.843 29.978 425.895 31.187 A 4.924 4.924 0 0 1 425.9 31.4 Z M 61.4 70 L 77 49.3 L 92.3 70 L 102.5 70 L 82.1 42.6 L 98.9 20 L 93.1 20 L 79.2 38.7 L 65.5 20 L 55.4 20 L 74.1 45.4 L 55.5 70 L 61.4 70 Z M 253.4 20 L 253.4 95 L 261.9 95 L 261.9 61.8 L 262.3 61.8 A 15.032 15.032 0 0 0 263.631 64.472 A 12.345 12.345 0 0 0 264.95 66.2 Q 266.6 68 268.7 69.1 Q 270.8 70.2 273.15 70.7 Q 275.5 71.2 277.9 71.2 A 23.595 23.595 0 0 0 284.258 70.365 A 21.06 21.06 0 0 0 287.1 69.35 Q 291.3 67.5 294.35 64.1 A 22.943 22.943 0 0 0 298.037 58.463 A 28.016 28.016 0 0 0 299.1 55.85 A 30.09 30.09 0 0 0 300.599 49.032 A 37.473 37.473 0 0 0 300.8 45.1 A 36.415 36.415 0 0 0 300.334 39.148 A 28.391 28.391 0 0 0 299.1 34.3 A 26.251 26.251 0 0 0 296.368 28.704 A 22.778 22.778 0 0 0 294.35 26.05 Q 291.3 22.6 287.1 20.75 A 22.077 22.077 0 0 0 279.444 18.945 A 26.064 26.064 0 0 0 277.9 18.9 A 23.571 23.571 0 0 0 272.157 19.549 Q 267.75 20.657 265.029 23.654 A 14.692 14.692 0 0 0 262.3 28.1 L 261.9 28.1 L 261.9 20 L 253.4 20 Z M 151.5 42.7 L 151.5 70 L 143.4 70 L 143.4 65.1 Q 140.5 67.9 136 69.55 A 26.356 26.356 0 0 1 128.406 71.16 A 24.581 24.581 0 0 1 127 71.2 A 21 21 0 0 1 123.069 70.848 A 16.117 16.117 0 0 1 119.4 69.7 A 17.91 17.91 0 0 1 115.787 67.538 A 15.345 15.345 0 0 1 113.9 65.8 Q 111.7 63.4 110.6 60.4 Q 109.5 57.4 109.5 54.3 Q 109.5 51.1 110.7 47.9 Q 111.9 44.7 114.3 42.15 A 18.079 18.079 0 0 1 118.875 38.661 A 21.442 21.442 0 0 1 120.2 38 A 17.493 17.493 0 0 1 125.095 36.607 A 22.568 22.568 0 0 1 128.2 36.4 Q 132.7 36.4 136.75 38.15 A 17.708 17.708 0 0 1 141.799 41.393 A 16.451 16.451 0 0 1 143.4 43.1 L 143.4 38.8 A 43.961 43.961 0 0 0 143.206 34.52 Q 142.711 29.475 140.95 26.6 A 7.779 7.779 0 0 0 136.613 23.26 Q 135.199 22.787 133.442 22.653 A 18.973 18.973 0 0 0 132 22.6 A 19.021 19.021 0 0 0 129.684 22.734 Q 128.281 22.906 127.1 23.3 A 13.143 13.143 0 0 0 123.931 24.837 A 12.127 12.127 0 0 0 123.35 25.25 A 15.017 15.017 0 0 0 121.2 27.252 A 17.979 17.979 0 0 0 120.3 28.35 A 45.422 45.422 0 0 0 118.638 30.706 A 56.756 56.756 0 0 0 117.5 32.5 L 112.3 27.3 Q 113.7 25.8 115.25 24.3 A 15.026 15.026 0 0 1 117.215 22.707 A 19.403 19.403 0 0 1 119.05 21.6 Q 121.3 20.4 124.4 19.65 Q 127.5 18.9 131.9 18.9 A 41.901 41.901 0 0 1 136.116 19.098 Q 140.37 19.529 143.108 20.903 A 12.222 12.222 0 0 1 143.2 20.95 A 16.083 16.083 0 0 1 146.289 22.983 A 12.099 12.099 0 0 1 149.05 26.3 A 16.849 16.849 0 0 1 150.885 31.435 A 21.065 21.065 0 0 1 151.2 33.9 Q 151.5 38.2 151.5 42.7 Z M 9.4 47.2 L 47.4 47.2 L 47.4 45.1 A 39.735 39.735 0 0 0 47.043 39.628 Q 46.576 36.275 45.5 33.5 A 25.281 25.281 0 0 0 43.1 28.774 A 20.385 20.385 0 0 0 40.35 25.4 Q 37.1 22.2 32.8 20.6 Q 28.5 19 23.7 19 A 25.994 25.994 0 0 0 17.351 19.754 A 22.824 22.824 0 0 0 14.3 20.75 Q 10 22.5 6.8 25.85 A 23.091 23.091 0 0 0 2.524 32.218 A 27.372 27.372 0 0 0 1.8 33.95 A 27.261 27.261 0 0 0 0.297 40.031 A 35.372 35.372 0 0 0 0 44.7 Q 0 49.7 1.55 54.45 Q 3.1 59.2 6.25 62.95 Q 9.4 66.7 14.25 68.95 A 23.457 23.457 0 0 0 20.169 70.754 A 32.608 32.608 0 0 0 25.7 71.2 A 31.817 31.817 0 0 0 33.849 70.184 A 28.173 28.173 0 0 0 37.5 68.95 Q 42.9 66.7 46.9 62.5 L 43.7 59.3 Q 41.6 61.1 39.75 62.6 A 24.078 24.078 0 0 1 37.183 64.426 A 20.662 20.662 0 0 1 36 65.1 Q 34.1 66.1 32.05 66.65 A 15.881 15.881 0 0 1 29.457 67.109 A 20.395 20.395 0 0 1 27.5 67.2 A 20.91 20.91 0 0 1 23.958 66.884 A 26.439 26.439 0 0 1 21.55 66.35 Q 18.4 65.5 15.7 63.3 Q 13 61.1 11.2 57.2 A 17.499 17.499 0 0 1 10.035 53.668 Q 9.638 51.889 9.489 49.807 A 36.622 36.622 0 0 1 9.4 47.2 Z M 348.7 47.2 L 386.7 47.2 L 386.7 45.1 A 39.735 39.735 0 0 0 386.343 39.628 Q 385.876 36.275 384.8 33.5 A 25.281 25.281 0 0 0 382.4 28.774 A 20.385 20.385 0 0 0 379.65 25.4 Q 376.4 22.2 372.1 20.6 Q 367.8 19 363 19 A 25.994 25.994 0 0 0 356.651 19.754 A 22.824 22.824 0 0 0 353.6 20.75 Q 349.3 22.5 346.1 25.85 A 23.091 23.091 0 0 0 341.824 32.218 A 27.372 27.372 0 0 0 341.1 33.95 A 27.261 27.261 0 0 0 339.597 40.031 A 35.372 35.372 0 0 0 339.3 44.7 Q 339.3 49.7 340.85 54.45 Q 342.4 59.2 345.55 62.95 Q 348.7 66.7 353.55 68.95 A 23.457 23.457 0 0 0 359.469 70.754 A 32.608 32.608 0 0 0 365 71.2 A 31.817 31.817 0 0 0 373.149 70.184 A 28.173 28.173 0 0 0 376.8 68.95 Q 382.2 66.7 386.2 62.5 L 383 59.3 Q 380.9 61.1 379.05 62.6 A 24.078 24.078 0 0 1 376.483 64.426 A 20.662 20.662 0 0 1 375.3 65.1 Q 373.4 66.1 371.35 66.65 A 15.881 15.881 0 0 1 368.757 67.109 A 20.395 20.395 0 0 1 366.8 67.2 A 20.91 20.91 0 0 1 363.258 66.884 A 26.439 26.439 0 0 1 360.85 66.35 Q 357.7 65.5 355 63.3 Q 352.3 61.1 350.5 57.2 A 17.499 17.499 0 0 1 349.335 53.668 Q 348.938 51.889 348.789 49.807 A 36.622 36.622 0 0 1 348.7 47.2 Z M 324.3 70 L 324.3 0 L 315.8 0 L 315.8 70 L 324.3 70 Z M 261.9 48.7 L 261.9 40 A 18.518 18.518 0 0 1 262.918 33.842 A 17.721 17.721 0 0 1 262.95 33.75 Q 264 30.8 265.9 28.65 Q 267.8 26.5 270.35 25.25 Q 272.9 24 275.8 24 Q 278.9 24 281.75 25.15 A 12.466 12.466 0 0 1 286.502 28.569 A 14.606 14.606 0 0 1 286.7 28.8 Q 288.652 31.124 289.87 34.744 A 27.089 27.089 0 0 1 290.05 35.3 A 25.33 25.33 0 0 1 290.905 39.106 Q 291.198 41.068 291.274 43.309 A 47.139 47.139 0 0 1 291.3 44.9 A 43.854 43.854 0 0 1 291.124 48.936 Q 290.932 51.012 290.53 52.803 A 22.774 22.774 0 0 1 290.05 54.6 Q 288.866 58.389 286.874 60.877 A 13.888 13.888 0 0 1 286.65 61.15 A 13.7 13.7 0 0 1 283.868 63.685 A 11.941 11.941 0 0 1 281.7 64.85 Q 278.9 66 275.8 66 Q 273 66 270.5 64.85 A 12.504 12.504 0 0 1 266.462 61.862 A 14.539 14.539 0 0 1 266.1 61.45 A 16.284 16.284 0 0 1 263.935 58.099 A 20.487 20.487 0 0 1 263.05 56 A 19.03 19.03 0 0 1 262.12 52.115 A 25.395 25.395 0 0 1 261.9 48.7 Z M 38.7 43.2 L 9.4 43.2 Q 9.4 39.2 10.25 35.45 A 24.2 24.2 0 0 1 11.577 31.297 A 20.053 20.053 0 0 1 12.85 28.8 A 14.195 14.195 0 0 1 17.091 24.288 A 13.932 13.932 0 0 1 17.3 24.15 A 10.81 10.81 0 0 1 21.698 22.538 A 14.042 14.042 0 0 1 23.7 22.4 A 14.524 14.524 0 0 1 28.766 23.247 Q 32.343 24.568 34.75 27.95 Q 37.89 32.362 38.534 39.396 A 41.762 41.762 0 0 1 38.7 43.2 Z M 378 43.2 L 348.7 43.2 Q 348.7 39.2 349.55 35.45 A 24.2 24.2 0 0 1 350.877 31.297 A 20.053 20.053 0 0 1 352.15 28.8 A 14.195 14.195 0 0 1 356.391 24.288 A 13.932 13.932 0 0 1 356.6 24.15 A 10.81 10.81 0 0 1 360.998 22.538 A 14.042 14.042 0 0 1 363 22.4 A 14.524 14.524 0 0 1 368.066 23.247 Q 371.643 24.568 374.05 27.95 Q 377.19 32.362 377.834 39.396 A 41.762 41.762 0 0 1 378 43.2 Z M 143.4 57.9 L 143.4 50.2 A 16.211 16.211 0 0 0 142.962 49.244 Q 142.704 48.723 142.379 48.143 A 33.855 33.855 0 0 0 141.95 47.4 A 14.822 14.822 0 0 0 140.466 45.343 A 18.15 18.15 0 0 0 139.5 44.3 Q 138 42.8 135.9 41.75 Q 133.8 40.7 130.9 40.7 A 12.694 12.694 0 0 0 127.309 41.195 A 11.332 11.332 0 0 0 125.6 41.85 Q 123.2 43 121.55 44.85 A 13.001 13.001 0 0 0 119.175 48.737 A 14.972 14.972 0 0 0 119 49.2 Q 118.1 51.7 118.1 54.4 A 15.055 15.055 0 0 0 118.32 57.037 A 10.958 10.958 0 0 0 119.25 59.95 A 13.571 13.571 0 0 0 121.444 63.195 A 12.514 12.514 0 0 0 122.2 63.95 Q 124 65.6 126.2 66.4 A 13.801 13.801 0 0 0 128.481 67.024 A 10.874 10.874 0 0 0 130.4 67.2 A 11.055 11.055 0 0 0 133.521 66.738 A 12.884 12.884 0 0 0 134.25 66.5 Q 136.2 65.8 137.95 64.55 Q 139.7 63.3 141.1 61.6 Q 142.5 59.9 143.4 57.9 Z" vector-effect="non-scaling-stroke"/></g></svg>