<svg width="108.8" height="50" viewBox="0 0 202.296 92.872" xmlns="http://www.w3.org/2000/svg">
    <g id="svgGroup" stroke-linecap="round" fill-rule="evenodd" font-size="9pt" stroke="#00bd7e" stroke-width="0.25mm" fill="#00bd7e">
      <path
        d="M 155.323 53.517 L 155.323 54.005 A 20.129 20.129 0 0 0 156.651 61.433 A 18.329 18.329 0 0 0 161.573 68.409 A 20.924 20.924 0 0 0 170.333 73.025 Q 174.09 74.024 178.663 74.024 Q 188.917 74.024 195.606 68.409 A 18.355 18.355 0 0 0 202.132 55.944 A 26.139 26.139 0 0 0 202.295 52.979 A 20.594 20.594 0 0 0 201.585 47.452 A 16.332 16.332 0 0 0 198.585 41.554 A 17.704 17.704 0 0 0 189.481 35.56 A 21.976 21.976 0 0 0 188.721 35.353 L 188.721 35.157 A 20.603 20.603 0 0 0 193.073 32.654 A 15.623 15.623 0 0 0 197.071 28.224 A 18.754 18.754 0 0 0 199.435 22.178 A 17.308 17.308 0 0 0 199.756 18.849 A 18.996 18.996 0 0 0 198.543 11.948 A 17.172 17.172 0 0 0 193.848 5.274 A 20.453 20.453 0 0 0 183.386 0.379 A 28.417 28.417 0 0 0 178.663 0.001 A 26.995 26.995 0 0 0 171.776 0.834 A 19.727 19.727 0 0 0 163.184 5.519 A 18.738 18.738 0 0 0 158.8 11.506 A 17.639 17.639 0 0 0 157.276 18.849 L 157.276 19.337 L 166.358 19.337 L 166.358 18.849 A 13.868 13.868 0 0 1 166.746 15.468 A 9.258 9.258 0 0 1 169.678 10.597 A 11.251 11.251 0 0 1 174.292 8.231 Q 176.268 7.716 178.663 7.716 A 16.219 16.219 0 0 1 182.239 8.088 Q 184.807 8.668 186.685 10.154 A 10.111 10.111 0 0 1 187.208 10.597 A 9.041 9.041 0 0 1 189.73 14.638 Q 190.198 16.107 190.33 17.892 A 19.639 19.639 0 0 1 190.381 19.337 A 15.037 15.037 0 0 1 189.919 23.176 A 10.522 10.522 0 0 1 186.719 28.468 Q 183.057 31.739 176.319 31.739 L 171.192 31.739 L 171.192 39.259 L 176.807 39.259 A 25.101 25.101 0 0 1 181.589 39.687 Q 184.387 40.231 186.594 41.463 A 13.82 13.82 0 0 1 188.477 42.726 A 11.156 11.156 0 0 1 192.435 49.244 A 17.399 17.399 0 0 1 192.823 53.028 A 19.215 19.215 0 0 1 192.483 56.769 Q 191.678 60.821 188.965 63.087 A 13.264 13.264 0 0 1 183.646 65.735 Q 181.668 66.238 179.336 66.301 A 24.977 24.977 0 0 1 178.663 66.31 A 21.008 21.008 0 0 1 174.358 65.893 Q 170.814 65.151 168.311 63.087 Q 164.405 59.864 164.405 54.005 L 164.405 53.517 L 155.323 53.517 Z M 0.001 21.192 L 0.001 54.347 A 36.587 36.587 0 0 0 0.346 59.564 Q 1.229 65.674 4.373 68.878 A 10.977 10.977 0 0 0 4.615 69.117 A 15.482 15.482 0 0 0 12.237 73.06 A 22.564 22.564 0 0 0 16.993 73.536 A 20.433 20.433 0 0 0 23.033 72.663 A 18.449 18.449 0 0 0 25.904 71.51 A 20.106 20.106 0 0 0 32.715 65.968 L 33.008 65.968 L 33.399 72.56 L 41.602 72.56 L 41.602 21.192 L 32.52 21.192 L 32.52 57.52 Q 30.665 61.231 27.344 63.575 A 12.842 12.842 0 0 1 20.217 65.91 A 15.769 15.769 0 0 1 19.678 65.919 Q 15.833 65.919 13.318 64.393 A 8.376 8.376 0 0 1 11.841 63.258 A 7.807 7.807 0 0 1 10.017 60.423 Q 9.083 58.025 9.083 54.444 L 9.083 21.192 L 0.001 21.192 Z M 56.055 21.192 L 56.055 92.872 L 65.137 92.872 L 65.137 66.505 A 15.905 15.905 0 0 0 70.023 70.974 A 19.122 19.122 0 0 0 71.168 71.607 Q 74.785 73.451 79.854 73.532 A 29.338 29.338 0 0 0 80.323 73.536 A 20.986 20.986 0 0 0 87.994 72.184 A 18.866 18.866 0 0 0 95.948 66.212 A 26.215 26.215 0 0 0 101.176 54.607 A 36.599 36.599 0 0 0 101.807 47.657 L 101.807 46.095 A 35.342 35.342 0 0 0 100.845 37.633 A 25.804 25.804 0 0 0 95.948 27.54 A 18.712 18.712 0 0 0 82.412 20.303 A 24.443 24.443 0 0 0 80.323 20.216 Q 74.952 20.216 70.923 22.462 A 19.524 19.524 0 0 0 67.894 24.522 Q 66.128 25.999 65.013 27.767 A 12.349 12.349 0 0 0 64.942 27.882 L 64.649 27.882 L 64.258 21.192 L 56.055 21.192 Z M 114.21 21.192 L 105.42 21.192 L 124.952 72.56 L 131.885 72.56 L 151.417 21.192 L 142.823 21.192 L 130.518 55.47 A 59.569 59.569 0 0 0 129.819 57.59 A 47.127 47.127 0 0 0 129.371 59.132 A 78.591 78.591 0 0 0 129.156 59.941 Q 128.928 60.817 128.788 61.451 A 20.173 20.173 0 0 0 128.711 61.817 L 128.419 61.817 A 21.826 21.826 0 0 0 128.304 61.283 Q 128.107 60.414 127.759 59.132 A 47.84 47.84 0 0 0 127.241 57.362 A 60.425 60.425 0 0 0 126.612 55.47 L 114.21 21.192 Z M 65.137 57.325 L 65.137 36.427 A 14.901 14.901 0 0 1 68.031 32.164 A 19.266 19.266 0 0 1 70.069 30.323 A 12.512 12.512 0 0 1 76.518 27.74 A 16.325 16.325 0 0 1 78.37 27.638 A 15.849 15.849 0 0 1 82.661 28.184 A 10.943 10.943 0 0 1 89.112 32.96 Q 92.53 38.282 92.53 46.095 L 92.53 47.657 A 29.662 29.662 0 0 1 91.966 53.594 Q 91.141 57.632 89.112 60.792 A 11.181 11.181 0 0 1 80.979 65.927 A 17.432 17.432 0 0 1 78.37 66.114 A 14.753 14.753 0 0 1 74.122 65.527 A 12.13 12.13 0 0 1 70.069 63.429 A 18.282 18.282 0 0 1 67.146 60.584 A 14.452 14.452 0 0 1 65.137 57.325 Z"
        vector-effect="non-scaling-stroke"></path>
    </g>
  </svg>